<svg xmlns="http://www.w3.org/2000/svg" xmlns:xlink="http://www.w3.org/1999/xlink" width="170.803" height="172.331" viewBox="0 0 170.803 172.331">
  <defs>
    <linearGradient id="linear-gradient" x1="1.938" y1="3.196" x2="1.945" y2="3.196" gradientUnits="objectBoundingBox">
      <stop offset="0" stop-color="#203f5e"/>
      <stop offset="1" stop-color="#506f8d"/>
    </linearGradient>
    <linearGradient id="linear-gradient-2" x1="2.688" y1="4.611" x2="2.699" y2="4.611" gradientUnits="objectBoundingBox">
      <stop offset="0" stop-color="#14314c"/>
      <stop offset="1" stop-color="#36506a"/>
    </linearGradient>
    <linearGradient id="linear-gradient-3" x1="2.819" y1="9.254" x2="2.838" y2="9.254" xlink:href="#linear-gradient"/>
    <linearGradient id="linear-gradient-4" x1="2.295" y1="4.425" x2="2.305" y2="4.425" gradientUnits="objectBoundingBox">
      <stop offset="0" stop-color="#5395d0"/>
      <stop offset="1" stop-color="#7fb2e0"/>
    </linearGradient>
    <linearGradient id="linear-gradient-5" x1="9.567" y1="24.241" x2="9.623" y2="24.241" gradientUnits="objectBoundingBox">
      <stop offset="0" stop-color="#5c9bd4"/>
      <stop offset="1" stop-color="#367dc1"/>
    </linearGradient>
    <linearGradient id="linear-gradient-6" x1="9.524" y1="27.882" x2="9.59" y2="27.882" xlink:href="#linear-gradient-5"/>
    <linearGradient id="linear-gradient-7" x1="13.003" y1="28.057" x2="13.075" y2="28.057" xlink:href="#linear-gradient-5"/>
    <linearGradient id="linear-gradient-8" x1="13.968" y1="31.589" x2="14.048" y2="31.589" xlink:href="#linear-gradient-5"/>
    <linearGradient id="linear-gradient-9" x1="9.04" y1="19.986" x2="9.099" y2="19.986" gradientUnits="objectBoundingBox">
      <stop offset="0" stop-color="#5193d0"/>
      <stop offset="1" stop-color="#67a4da"/>
    </linearGradient>
    <linearGradient id="linear-gradient-10" x1="7.179" y1="15.543" x2="7.224" y2="15.543" gradientUnits="objectBoundingBox">
      <stop offset="0" stop-color="#67a4da"/>
      <stop offset="1" stop-color="#7bb1e1"/>
    </linearGradient>
    <linearGradient id="linear-gradient-11" x1="10.928" y1="18.949" x2="10.987" y2="18.949" xlink:href="#linear-gradient-9"/>
    <linearGradient id="linear-gradient-12" x1="8.596" y1="14.711" x2="8.641" y2="14.711" xlink:href="#linear-gradient-10"/>
    <linearGradient id="linear-gradient-13" x1="13.059" y1="19.332" x2="13.114" y2="19.332" xlink:href="#linear-gradient-9"/>
    <linearGradient id="linear-gradient-14" x1="10.354" y1="15.221" x2="10.396" y2="15.221" xlink:href="#linear-gradient-10"/>
    <linearGradient id="linear-gradient-15" x1="10.701" y1="21.022" x2="10.757" y2="21.022" xlink:href="#linear-gradient-9"/>
    <linearGradient id="linear-gradient-16" x1="9.74" y1="16.491" x2="9.783" y2="16.491" xlink:href="#linear-gradient-10"/>
    <linearGradient id="linear-gradient-17" x1="5.587" y1="24.715" x2="5.654" y2="24.715" xlink:href="#linear-gradient-9"/>
    <linearGradient id="linear-gradient-18" x1="10.27" y1="18.982" x2="10.316" y2="18.982" xlink:href="#linear-gradient-10"/>
  </defs>
  <g id="DI-Icon1" transform="translate(-264.216 -313.335)">
    <g id="Group_7" data-name="Group 7">
      <path id="Path_5" data-name="Path 5" d="M402.922,416.315a69.353,69.353,0,1,0-69.355,69.351h0A69.353,69.353,0,0,0,402.922,416.315Z" fill="url(#linear-gradient)"/>
      <path id="Path_6" data-name="Path 6" d="M378.913,416.315a45.344,45.344,0,1,0-45.345,45.343h0A45.347,45.347,0,0,0,378.913,416.315Z" fill="url(#linear-gradient-2)"/>
      <path id="Path_7" data-name="Path 7" d="M400.049,354.64c1.971-9.029,7.133-25.08,20.042-35.412a2.685,2.685,0,0,0,.571-3.657l-.773-1.1a2.658,2.658,0,0,0-3.7-.656c-.029.02-.059.042-.087.064-13.369,10.588-19.32,26.155-21.916,36.435-3.215-8.194-6.543-20.637-3.226-31.933a2.629,2.629,0,0,0-1.637-3.151l-1.241-.474a2.7,2.7,0,0,0-3.471,1.592c-.025.068-.048.137-.067.208-6.3,21.531,7.567,45.241,8.183,46.28a3.347,3.347,0,0,0,2.187,1.559,3.461,3.461,0,0,0,.681.073,3.3,3.3,0,0,0,1.944-.63c.159-.116,15.54-10.978,34.513-9.826a2.7,2.7,0,0,0,2.8-2.41l.148-1.271a2.648,2.648,0,0,0-2.3-2.956l-.114-.011C418.833,346.473,406.961,351.1,400.049,354.64Z" fill="url(#linear-gradient-3)"/>
      <path id="Path_8" data-name="Path 8" d="M357.03,350.6,314.2,436.344a6.473,6.473,0,0,0,9.258,8.358L404.4,393.368a9.486,9.486,0,0,0,4.007-10.7c-5.482-18.585-22.1-33.589-41.148-37.149A9.488,9.488,0,0,0,357.03,350.6Z" fill="url(#linear-gradient-4)"/>
      <path id="Path_9" data-name="Path 9" d="M352.737,359.2l-1.855,3.713,14.3,12.909a2,2,0,0,0,2.682-2.97Z" fill="url(#linear-gradient-5)"/>
      <path id="Path_10" data-name="Path 10" d="M375.162,393.6a2,2,0,1,0-2.713,2.939l.034.031,11.086,10.012,3.509-2.224Z" fill="url(#linear-gradient-6)"/>
      <path id="Path_11" data-name="Path 11" d="M348.4,401.293a2,2,0,0,0,1.338-3.482l-11.226-10.146-1.855,3.713,10.4,9.4A2,2,0,0,0,348.4,401.293Z" fill="url(#linear-gradient-7)"/>
      <path id="Path_12" data-name="Path 12" d="M339.818,418.665a2,2,0,0,0,.147,2.824h0l8.291,7.486,3.5-2.224-9.115-8.232A2,2,0,0,0,339.818,418.665Z" fill="url(#linear-gradient-8)"/>
      <path id="Path_13" data-name="Path 13" d="M371.069,449.706a5.4,5.4,0,0,1-5.192-4.071l-1.263-5.181a5.352,5.352,0,0,1,3.921-6.446l5.184-1.263a5.226,5.226,0,0,1,1.252-.151,5.4,5.4,0,0,1,5.194,4.071l1.263,5.184a5.346,5.346,0,0,1-3.923,6.446l-5.181,1.26A5.313,5.313,0,0,1,371.069,449.706Z" fill="url(#linear-gradient-9)"/>
      <path id="Path_14" data-name="Path 14" d="M384.019,441.22l-1.263-5.184a8.009,8.009,0,0,0-9.67-5.884l-5.178,1.263a8.028,8.028,0,0,0-5.886,9.672l1.263,5.181a8.036,8.036,0,0,0,7.787,6.107,7.878,7.878,0,0,0,1.885-.226l5.178-1.263A8.021,8.021,0,0,0,384.019,441.22Zm-7.144,4.486-5.181,1.26a2.614,2.614,0,0,1-.622.075,2.7,2.7,0,0,1-2.6-2.036l-1.263-5.181a2.7,2.7,0,0,1,1.96-3.223l5.181-1.263a2.5,2.5,0,0,1,.622-.075,2.7,2.7,0,0,1,2.6,2.033l1.263,5.184a2.707,2.707,0,0,1-1.96,3.226Z" fill="url(#linear-gradient-10)"/>
      <path id="Path_15" data-name="Path 15" d="M345.138,471.43a5.4,5.4,0,0,1-.959-.086l-5.245-.961a5.341,5.341,0,0,1-4.287-6.209l.956-5.245a5.344,5.344,0,0,1,5.259-4.376,5.178,5.178,0,0,1,.953.089l5.248.961a5.366,5.366,0,0,1,4.287,6.209l-.961,5.245A5.332,5.332,0,0,1,345.138,471.43Z" fill="url(#linear-gradient-11)"/>
      <path id="Path_16" data-name="Path 16" d="M347.542,452.979l-5.248-.964a7.89,7.89,0,0,0-1.438-.129,8.027,8.027,0,0,0-7.874,6.56l-.964,5.245a8.025,8.025,0,0,0,6.428,9.314l5.248.964a8,8,0,0,0,9.312-6.425l0-.005.964-5.245A8.03,8.03,0,0,0,347.542,452.979Zm.218,13.6a2.7,2.7,0,0,1-2.628,2.181,2.888,2.888,0,0,1-.474-.04l-5.248-.964a2.7,2.7,0,0,1-2.143-3.1l.961-5.248a2.7,2.7,0,0,1,2.631-2.186,2.3,2.3,0,0,1,.474.046l5.248.959a2.707,2.707,0,0,1,2.143,3.1Z" fill="url(#linear-gradient-12)"/>
      <path id="Path_17" data-name="Path 17" d="M292.261,442.621a5.328,5.328,0,0,1-3.406-1.228l-4.1-3.412a5.351,5.351,0,0,1-.684-7.513l3.412-4.1a5.354,5.354,0,0,1,7.51-.687l4.1,3.414a5.345,5.345,0,0,1,.684,7.515l-3.414,4.1A5.33,5.33,0,0,1,292.261,442.621Z" fill="url(#linear-gradient-13)"/>
      <path id="Path_18" data-name="Path 18" d="M300.808,427.048l-4.1-3.417a8.032,8.032,0,0,0-11.269,1.031l-3.414,4.1a8.021,8.021,0,0,0,1.026,11.269l4.1,3.414a8.029,8.029,0,0,0,11.272-1.026l3.412-4.1A8.03,8.03,0,0,0,300.808,427.048Zm-3.072,7.855-3.417,4.1a2.662,2.662,0,0,1-2.057.951,2.629,2.629,0,0,1-1.7-.609l-4.1-3.414a2.7,2.7,0,0,1-.342-3.759l3.414-4.1a2.661,2.661,0,0,1,2.06-.953,2.617,2.617,0,0,1,1.7.611l4.1,3.412a2.688,2.688,0,0,1,.345,3.756Z" fill="url(#linear-gradient-14)"/>
      <path id="Path_19" data-name="Path 19" d="M309.861,415.649a5.332,5.332,0,0,1-3.554-.673l-4.588-2.72a5.352,5.352,0,0,1-1.866-7.311l2.72-4.586a5.356,5.356,0,0,1,7.311-1.871l4.588,2.722a5.346,5.346,0,0,1,1.866,7.311l-2.722,4.586A5.314,5.314,0,0,1,309.861,415.649Z" fill="url(#linear-gradient-15)"/>
      <path id="Path_20" data-name="Path 20" d="M315.83,398.92l-4.586-2.722a8.022,8.022,0,0,0-10.968,2.8l-2.72,4.588a8.018,8.018,0,0,0,2.8,10.962l4.588,2.725a8.024,8.024,0,0,0,10.962-2.8l2.725-4.586A8.029,8.029,0,0,0,315.83,398.92Zm-1.788,8.24-2.72,4.591a2.683,2.683,0,0,1-1.882,1.263,2.615,2.615,0,0,1-1.774-.331l-4.588-2.72a2.685,2.685,0,0,1-.932-3.654l2.713-4.584a2.67,2.67,0,0,1,1.888-1.266h0a2.628,2.628,0,0,1,1.772.331l4.591,2.72a2.7,2.7,0,0,1,.932,3.654Z" fill="url(#linear-gradient-16)"/>
      <path id="Path_21" data-name="Path 21" d="M315.489,383.541a5.323,5.323,0,0,1-3.49.951l-5.318-.434a5.356,5.356,0,0,1-4.879-5.752l.434-5.315a5.357,5.357,0,0,1,5.754-4.882l5.315.434a5.341,5.341,0,0,1,4.882,5.752l-.436,5.318A5.322,5.322,0,0,1,315.489,383.541Z" fill="url(#linear-gradient-17)"/>
      <path id="Path_22" data-name="Path 22" d="M313.52,365.885l-5.315-.436a8.017,8.017,0,0,0-8.625,7.324l-.439,5.315a8.021,8.021,0,0,0,7.322,8.628l5.318.439a8.03,8.03,0,0,0,8.63-7.322l.436-5.318A8.027,8.027,0,0,0,313.52,365.885Zm1.573,13.512a2.7,2.7,0,0,1-2.876,2.44L306.9,381.4a2.685,2.685,0,0,1-2.44-2.879l.436-5.315a2.668,2.668,0,0,1,1.136-1.963,2.631,2.631,0,0,1,1.74-.477l5.315.436a2.689,2.689,0,0,1,2.442,2.876Z" fill="url(#linear-gradient-18)"/>
      <path id="Path_23" data-name="Path 23" d="M429.682,379.681h-4v-4a1.334,1.334,0,0,0-2.668,0v4h-4a1.333,1.333,0,1,0,0,2.666h4v4a1.334,1.334,0,1,0,2.668,0v-4h4a1.333,1.333,0,1,0,0-2.666Z" fill="#8c9aa9"/>
      <path id="Path_24" data-name="Path 24" d="M338.98,331.664h-4v-4a1.333,1.333,0,1,0-2.666,0v4h-4a1.333,1.333,0,1,0,0,2.666h4v4a1.333,1.333,0,0,0,2.666,0h0v-4h4a1.333,1.333,0,0,0,0-2.666Z" fill="#5d9cd5"/>
      <path id="Path_25" data-name="Path 25" d="M304.3,320.992h-4v-4a1.333,1.333,0,1,0-2.666,0h0v4h-4a1.333,1.333,0,1,0,0,2.666h4v4a1.333,1.333,0,1,0,2.666,0v-4h4a1.333,1.333,0,1,0,0-2.666Z" fill="#344c65"/>
      <path id="Path_26" data-name="Path 26" d="M424.346,419.694h-4v-4a1.335,1.335,0,1,0-2.669,0v4h-4a1.336,1.336,0,0,0,0,2.671h4v4a1.335,1.335,0,0,0,2.669,0v-4h4a1.336,1.336,0,0,0,.072-2.671Q424.382,419.692,424.346,419.694Z" fill="#79b0e0"/>
    </g>
  </g>
</svg>
