<svg xmlns="http://www.w3.org/2000/svg" xmlns:xlink="http://www.w3.org/1999/xlink" width="172.337" height="172.34" viewBox="0 0 172.337 172.34">
  <defs>
    <linearGradient id="linear-gradient" x1="-8.258" y1="2.805" x2="-8.246" y2="2.805" gradientUnits="objectBoundingBox">
      <stop offset="0" stop-color="#203f5e"/>
      <stop offset="1" stop-color="#506f8d"/>
    </linearGradient>
    <linearGradient id="linear-gradient-2" x1="-9.258" y1="2.805" x2="-9.246" y2="2.805" xlink:href="#linear-gradient"/>
    <linearGradient id="linear-gradient-3" x1="-8.439" y1="8.668" x2="-8.428" y2="8.668" gradientUnits="objectBoundingBox">
      <stop offset="0" stop-color="#5c9bd4"/>
      <stop offset="1" stop-color="#367dc1"/>
    </linearGradient>
    <linearGradient id="linear-gradient-4" x1="-49.721" y1="15.819" x2="-49.659" y2="15.819" gradientUnits="objectBoundingBox">
      <stop offset="0" stop-color="#74adde"/>
      <stop offset="1" stop-color="#87bae5"/>
    </linearGradient>
    <linearGradient id="linear-gradient-5" x1="-13.109" y1="5.1" x2="-13.091" y2="5.1" gradientUnits="objectBoundingBox">
      <stop offset="0" stop-color="#5193d0"/>
      <stop offset="1" stop-color="#67a4da"/>
    </linearGradient>
    <linearGradient id="linear-gradient-6" x1="-14.677" y1="5.1" x2="-14.659" y2="5.1" gradientUnits="objectBoundingBox">
      <stop offset="0" stop-color="#5395d0"/>
      <stop offset="1" stop-color="#7fb2e0"/>
    </linearGradient>
  </defs>
  <g id="DI-Icon3" transform="translate(-1243.449 -307.348)">
    <g id="Group_9" data-name="Group 9">
      <path id="Path_28" data-name="Path 28" d="M1280.818,327.548h-26.83a10.568,10.568,0,0,0-10.539,10.539V469.148a10.572,10.572,0,0,0,10.539,10.54h75.63V307.353A68.913,68.913,0,0,0,1280.818,327.548Z" fill="url(#linear-gradient)"/>
      <path id="Path_29" data-name="Path 29" d="M1405.248,327.548h-26.825a68.938,68.938,0,0,0-48.806-20.2v172.34h75.631a10.572,10.572,0,0,0,10.538-10.54V338.088A10.569,10.569,0,0,0,1405.248,327.548Z" fill="url(#linear-gradient-2)"/>
      <path id="Path_30" data-name="Path 30" d="M1329.616,324.223a53.921,53.921,0,0,0-44.134,22.9,2.717,2.717,0,0,0-.229,2.69l12.1,26.206a2.7,2.7,0,0,0,2.442,1.567h59.644a2.7,2.7,0,0,0,2.445-1.567l12.09-26.206a2.7,2.7,0,0,0-.226-2.69A53.922,53.922,0,0,0,1329.616,324.223Z" fill="url(#linear-gradient-3)"/>
      <path id="Path_31" data-name="Path 31" d="M1321.538,377.591h16.156c-3.01-10.682-8.078-27.24-8.078-27.24S1324.548,366.909,1321.538,377.591Z" fill="url(#linear-gradient-4)"/>
      <path id="Path_32" data-name="Path 32" d="M1313.87,396.44v65.549a2.7,2.7,0,0,1-2.693,2.693h-47.47a5.384,5.384,0,0,1-5.385-5.383V391.055a5.383,5.383,0,0,1,5.383-5.385h12.749a2.69,2.69,0,0,1,2.448,1.565l2.283,4.947a2.689,2.689,0,0,0,2.442,1.567h27.549A2.694,2.694,0,0,1,1313.87,396.44Z" fill="url(#linear-gradient-5)"/>
      <path id="Path_33" data-name="Path 33" d="M1345.361,396.44v65.549a2.693,2.693,0,0,0,2.693,2.693h47.468a5.385,5.385,0,0,0,5.385-5.383V391.055a5.384,5.384,0,0,0-5.383-5.385h-12.752a2.682,2.682,0,0,0-2.442,1.565l-2.287,4.945a2.691,2.691,0,0,1-2.445,1.567h-27.544A2.692,2.692,0,0,0,1345.361,396.44Z" fill="url(#linear-gradient-6)"/>
      <path id="Path_34" data-name="Path 34" d="M1374.852,346.354a55.455,55.455,0,0,0-45.233-23.475h0a55.457,55.457,0,0,0-45.235,23.475,4.043,4.043,0,0,0-.347,4.028l12.09,26.206a4.052,4.052,0,0,0,3.665,2.348h59.65a4.052,4.052,0,0,0,3.665-2.348l12.093-26.206A4.055,4.055,0,0,0,1374.852,346.354Zm-2.1,2.9-12.093,26.208a1.352,1.352,0,0,1-1.22.784h-59.647a1.356,1.356,0,0,1-1.223-.784l-12.09-26.208a1.352,1.352,0,0,1,.1-1.346,52.612,52.612,0,0,1,14.735-14.021l4.109,7a1.346,1.346,0,0,0,2.321-1.363l-4.128-7.023a52.707,52.707,0,0,1,24.652-6.883v7.99a1.347,1.347,0,0,0,2.693,0v-7.99a52.566,52.566,0,0,1,24.655,6.869l-4.131,7.031a1.346,1.346,0,1,0,2.3,1.4l.023-.038,4.112-7a52.739,52.739,0,0,1,14.734,14.027,1.35,1.35,0,0,1,.1,1.344Z" fill="#98a4b2"/>
      <path id="Path_35" data-name="Path 35" d="M1303.446,409.38h-4.039v-4.039a1.346,1.346,0,1,0-2.693,0v4.039h-4.039a1.346,1.346,0,1,0,0,2.693h4.042v4.039a1.346,1.346,0,0,0,2.693,0v-4.039h4.039a1.346,1.346,0,0,0,0-2.693Z" fill="#4b6b88"/>
      <path id="Path_36" data-name="Path 36" d="M1282.407,444.893h-4.039v-4.039a1.346,1.346,0,1,0-2.693,0v4.039h-4.039a1.346,1.346,0,1,0,0,2.693h4.039v4.038a1.346,1.346,0,0,0,2.693,0v-4.039h4.039a1.346,1.346,0,0,0,0-2.693h0Z" fill="#4b6b88"/>
      <path id="Path_37" data-name="Path 37" d="M1386.164,429.215h-4.039v-4.039a1.346,1.346,0,1,0-2.693,0v4.039h-4.039a1.346,1.346,0,1,0,0,2.693h4.039v4.039a1.346,1.346,0,0,0,2.693,0v-4.039h4.039a1.346,1.346,0,0,0,0-2.693Z" fill="#4b6b88"/>
    </g>
  </g>
</svg>
