<svg xmlns="http://www.w3.org/2000/svg" xmlns:xlink="http://www.w3.org/1999/xlink" width="337" height="364" viewBox="0 0 337 364">
  <defs>
    <clipPath id="clip-path">
      <path id="Path_65" data-name="Path 65" d="M250,2877.333s22,139.257,174,139.257,163.346,142.169,163.346,142.169V3213H250Z" transform="translate(-250 -2877.333)" fill="#24466e"/>
    </clipPath>
    <clipPath id="clip-path-2">
      <path id="Path_64" data-name="Path 64" d="M250,2877.333s22.043,139.257,174.338,139.257S588,3158.759,588,3158.759V3213H250Z" transform="translate(-250.5 -2877.333)" fill="#e7d09c"/>
    </clipPath>
    <clipPath id="clip-team-frame">
      <rect width="337" height="364"/>
    </clipPath>
  </defs>
  <g id="team-frame" clip-path="url(#clip-team-frame)">
    <g id="Group_29" data-name="Group 29" transform="translate(0 0.333)">
      <g id="Group_25" data-name="Group 25" opacity="0.75" clip-path="url(#clip-path)">
        <g id="Group_24" data-name="Group 24" transform="translate(0 -90.807)">
          <rect id="Rectangle_8" data-name="Rectangle 8" width="337.5" height="426.474" rx="15" fill="#24466e"/>
          <rect id="Rectangle_9" data-name="Rectangle 9" width="337.5" height="426.474" rx="15" fill="#24466e"/>
        </g>
      </g>
      <g id="Group_2" data-name="Group 2" transform="translate(0 28)" clip-path="url(#clip-path-2)">
        <g id="Group_22" data-name="Group 22" transform="translate(0 -90.807)">
          <rect id="Rectangle_5" data-name="Rectangle 5" width="337.5" height="426.474" rx="15" fill="#f3f2f0"/>
          <path id="Path_190" data-name="Path 190" d="M15,0H322.5a15,15,0,0,1,15,15V411.474a15,15,0,0,1-15,15H15a15,15,0,0,1-15-15V15A15,15,0,0,1,15,0Z" fill="#f3f2f0"/>
        </g>
      </g>
    </g>
  </g>
</svg>
