<svg xmlns="http://www.w3.org/2000/svg" width="124" height="124" viewBox="0 0 124 124">
  <g id="avaliacao" transform="translate(-653 -850)">
    <circle id="Ellipse_15" data-name="Ellipse 15" cx="62" cy="62" r="62" transform="translate(653 850)" fill="#2661a7" opacity="0.25"/>
    <g id="Outline" transform="translate(672.208 869.169)">
      <path id="Path_182" data-name="Path 182" d="M40.989,79.624l-1.678-.486.585-6.091-1.778-.229-.583,6.07H35.653v-14.5a.973.973,0,0,0-.894-1.036h-.894V59.21h1.821a3.154,3.154,0,0,1,2.366,1.135,4.177,4.177,0,0,1,.98,2.74q0,.214-.02.428l-.691,7.2,1.778.229.691-7.2q.032-.329.032-.66a6.412,6.412,0,0,0-1.5-4.2,4.841,4.841,0,0,0-3.631-1.742h-5.4V54.345L31.66,51.96a3.88,3.88,0,0,0,1.334-.239l2.956,3.08a.927.927,0,0,0,.1.092,5.187,5.187,0,0,0,3.179,1.118,4.927,4.927,0,0,0,.528-.029,7.05,7.05,0,0,0,1.286.121c3.566,0,6.709-2.709,7.733-6.664l.42-1.622h.656l3.471,1a.835.835,0,0,0,.767-.188,1.1,1.1,0,0,0,.344-.816V41.6a1.1,1.1,0,0,0-.344-.816.8.8,0,0,0-.767-.188l-3.471,1H46.386a.828.828,0,0,0-.589.256l-6.525,6.612L35.493,44.1l-.691-1.6a4.1,4.1,0,0,0,2.641-4V38.47a1.014,1.014,0,0,0,.7-1.01V34.3l.828-.959a1.16,1.16,0,0,0,.168-1.2l-1-2.306v-.387a5.885,5.885,0,0,0-1.38-3.856A4.512,4.512,0,0,0,33.432,24c-1.775,0-3.451-.062-4.972,1.171a3.22,3.22,0,0,0-3.986-.79A4.264,4.264,0,0,0,22.4,28.4a4.083,4.083,0,0,0,2.489,3.691l.54-1.975a2.039,2.039,0,0,1-1.242-1.823,2.145,2.145,0,0,1,1-2.013,1.6,1.6,0,0,1,1.985.326,7.542,7.542,0,0,0-1.156,4.96A21.032,21.032,0,0,0,27.838,37.6l-6.5,15.942V46.781a2.919,2.919,0,0,0-2.683-3.107,2.919,2.919,0,0,0-2.683,3.107v2.071h1.789V46.781a.9.9,0,1,1,1.789,0V67.5H18.66a.974.974,0,0,1-.894-1.036V50.924H15.977V66.459a2.922,2.922,0,0,0,2.683,3.107h.894v2.071a.973.973,0,0,0,.894,1.036h.894v5.405l-2.8.812a2.83,2.83,0,0,0-2.5,2.445,3.284,3.284,0,0,0,1.4,3.427,2.433,2.433,0,0,0,3.219-.7H27.4a2.432,2.432,0,0,0,3.218.694,3.283,3.283,0,0,0,1.4-3.425,2.83,2.83,0,0,0-2.5-2.444l-2.8-.812V72.674h2.683a.973.973,0,0,0,.894-1.036V69.567H32.97a2.357,2.357,0,0,0,.894-.176V84.066a.973.973,0,0,0,.894,1.036h5.648a2.555,2.555,0,0,0,2.384-2.441A2.788,2.788,0,0,0,40.989,79.624ZM32.076,63.352H30.287V59.21h1.789Zm-1.789-26.7V38.5a4.755,4.755,0,0,0,.113,1.036H29.023ZM28.5,43.434A1.721,1.721,0,0,1,30.079,41.6h.077a1.47,1.47,0,0,1,1.118.536l2.186,2.532-2.278,2.374-2.16-2.251A1.973,1.973,0,0,1,28.5,43.434ZM43.521,53.451l3.615-4.883-.072.276A6.982,6.982,0,0,1,43.521,53.451Zm9.125-6.961-1.789-.518V43.447l1.789-.518ZM39.82,50.668l6.9-6.994h2.347v2.071H47.28a.849.849,0,0,0-.679.362l-5.282,7.136a3.486,3.486,0,0,1-4.224-.035l-4.577-4.77,2.208-2.3L38.6,50.621A.808.808,0,0,0,39.82,50.668ZM33.967,40.561l-.02-.045.682-2.02h1.024A1.967,1.967,0,0,1,33.967,40.561Zm2.48-10.017.8,1.857-.634.734a1.124,1.124,0,0,0-.262.732v2.557H34.019a.907.907,0,0,0-.833.659l-.826,2.448h-.042a2.31,2.31,0,0,1-.242-1.036v-7.25h-1.44a.592.592,0,0,1-.019-.321.5.5,0,0,1,.248-.342c.239-.124.47.061.676.184a.82.82,0,0,0,1.124-.3l2.449-3.782a3.118,3.118,0,0,1,.383.372,3.651,3.651,0,0,1,.855,2.391v.632A1.17,1.17,0,0,0,36.447,30.544Zm-8.659.744a5.9,5.9,0,0,1,.938-3.617c1.17-1.6,2.885-1.6,4.552-1.6l-1.618,2.5a1.969,1.969,0,0,0-1.725.244,2.576,2.576,0,0,0-1.052,1.6,2.884,2.884,0,0,0,.584,2.469l.355.411-.946,2.027a19.6,19.6,0,0,1-1.089-4.03Zm1.6,49.671a.942.942,0,0,1,.882.855,1.066,1.066,0,0,1-.575,1.154.841.841,0,0,1-1.081-.457.88.88,0,0,0-.774-.517H20.207a.88.88,0,0,0-.774.517.841.841,0,0,1-1.08.455,1.066,1.066,0,0,1-.575-1.153.942.942,0,0,1,.881-.855c.073,0,3.688-1.036,3.688-1.036H25.7S29.319,80.959,29.392,80.959Zm-4.472-3.107H23.132V72.674h1.789ZM28.5,70.6H21.343v-12.2L26.9,44.727a3.993,3.993,0,0,0,.923,1.606l2.758,2.874h0l.653.681h-.054a.869.869,0,0,0-.744.461l-1.789,3.107a1.156,1.156,0,0,0-.15.575ZM33.6,67.191a.836.836,0,0,1-.634.3H30.287V65.424H32.97a.9.9,0,0,1,.826.639A1.16,1.16,0,0,1,33.6,67.191Zm6.8,15.839H35.653V80.959h2.573l2.329.674a.711.711,0,0,1,.459.775.652.652,0,0,1-.608.622Z" transform="translate(0 -7.102)" fill="#2661a7"/>
      <rect id="Rectangle_46" data-name="Rectangle 46" width="3.578" height="1.789" transform="translate(23.132 52.334)" fill="#2661a7"/>
      <path id="Path_183" data-name="Path 183" d="M297.043,53.2V39.767a3.267,3.267,0,0,0-1.134-2.531,2.385,2.385,0,0,0-2.444-.391V21.167c0-2.852-2-5.163-4.472-5.167h-6.261a.971.971,0,0,0-.894,1.033V19.1a3.173,3.173,0,0,0,1.529,2.8l-1.483,5.142a1.168,1.168,0,0,0,.123.931.863.863,0,0,0,.726.429h.894v3.1a.971.971,0,0,0,.894,1.033h1.789v1.653a12.571,12.571,0,0,0-2.683,7.9v4.31l-6.335.61a.806.806,0,0,0-.326.106l-3.578,2.067a1.06,1.06,0,0,0-.494.924v3.1a.971.971,0,0,0,.894,1.033h1.789a.788.788,0,0,0,.283-.053l2.546-.98h11.482a3.2,3.2,0,0,0,1.789-.556V53.2a2.918,2.918,0,0,1-2.683,3.1H278.261a.853.853,0,0,0-.692.378,1.155,1.155,0,0,0-.185.858L279.853,71.8h-2.663l-2.953-15.354a4,4,0,0,1-.072-.762h-1.789a6.371,6.371,0,0,0,.115,1.212l2.866,14.9h-.674a3.132,3.132,0,0,0,0,6.2h6.261a.935.935,0,0,0,.874-.814,2.474,2.474,0,0,0,1.943.81,2.554,2.554,0,0,0,1.864-1.029h6.738a2.435,2.435,0,0,0,3.218.693,3.272,3.272,0,0,0,1.4-3.417,2.827,2.827,0,0,0-2.5-2.439l-2.8-.81V64.437h-1.789v6.329H288.1V62.5h6.261a2.918,2.918,0,0,0,2.683-3.1v-4h-1.789v4a.973.973,0,0,1-.894,1.033H280.944a1.044,1.044,0,0,1,0-2.067h11.627a.971.971,0,0,0,.894-1.033V39.767a.9.9,0,1,1,1.789,0V53.2ZM280.049,75.933h-5.366a1.044,1.044,0,0,1,0-2.067h5.366Zm10.623-3.1,3.471,1a.779.779,0,0,0,.217.031.941.941,0,0,1,.882.853,1.063,1.063,0,0,1-.575,1.151.842.842,0,0,1-1.081-.456.88.88,0,0,0-.774-.515h-7.638a.88.88,0,0,0-.774.515.841.841,0,0,1-1.08.454,1.063,1.063,0,0,1-.575-1.15.941.941,0,0,1,.881-.853.779.779,0,0,0,.217-.031l3.471-1ZM280.944,62.5h5.366v8.493l-2.8.81a2.5,2.5,0,0,0-1.688.811l-1.782-10.3A2.352,2.352,0,0,0,280.944,62.5Zm8.049-25.317a1.356,1.356,0,1,1,2.683,0v2.583h-2.683Zm-5.366-19.117h5.366a2.918,2.918,0,0,1,2.683,3.1V22.2L290.6,20.547a.86.86,0,0,0-.716-.413h-5.366a.973.973,0,0,1-.894-1.033Zm1.789,12.4v-3.1a.971.971,0,0,0-.894-1.033h-.548l1.193-4.133h4.274l2.236,3.444v7.922H288.1V31.5a.971.971,0,0,0-.894-1.033Zm0,11.617a10.382,10.382,0,0,1,2.014-6.244,4.092,4.092,0,0,0-.225,1.343v8.866l-1.789.172Zm4.472,9.049H278.261a.788.788,0,0,0-.283.053l-2.546.98h-.749V50.738l2.929-1.692,10.561-1.017a.986.986,0,0,0,.82-1.03V41.833h2.683v7.233a1.945,1.945,0,0,1-1.789,2.067Z" transform="translate(-227.403)" fill="#2661a7"/>
    </g>
  </g>
</svg>
