<svg id="information" xmlns="http://www.w3.org/2000/svg" width="34" height="34" viewBox="0 0 34 34">
  <g id="Group_157" data-name="Group 157">
    <g id="Group_156" data-name="Group 156">
      <path id="Path_175" data-name="Path 175" d="M17,0A17,17,0,1,0,34,17,16.99,16.99,0,0,0,17,0Zm0,31.344A14.344,14.344,0,1,1,31.344,17,14.336,14.336,0,0,1,17,31.344Z" fill="#24466e"/>
    </g>
  </g>
  <g id="Group_159" data-name="Group 159" transform="translate(15.672 14.233)">
    <g id="Group_158" data-name="Group 158">
      <path id="Path_176" data-name="Path 176" d="M237.328,214.33A1.328,1.328,0,0,0,236,215.658v8.553a1.328,1.328,0,1,0,2.656,0v-8.553A1.328,1.328,0,0,0,237.328,214.33Z" transform="translate(-236 -214.33)" fill="#24466e"/>
    </g>
  </g>
  <g id="Group_161" data-name="Group 161" transform="translate(15.207 9.021)">
    <g id="Group_160" data-name="Group 160">
      <circle id="Ellipse_7" data-name="Ellipse 7" cx="1.793" cy="1.793" r="1.793" fill="#24466e"/>
    </g>
  </g>
</svg>
