<svg xmlns="http://www.w3.org/2000/svg" width="124" height="124" viewBox="0 0 124 124">
  <g id="consulta" transform="translate(-408 -452)">
    <circle id="Ellipse_11" data-name="Ellipse 11" cx="62" cy="62" r="62" transform="translate(408 452)" fill="#2661a7" opacity="0.25"/>
    <g id="lawyer" transform="translate(438 482)">
      <circle id="Ellipse_9" data-name="Ellipse 9" cx="1" cy="1" r="1" transform="translate(27 15)" fill="#24466e"/>
      <circle id="Ellipse_10" data-name="Ellipse 10" cx="1" cy="1" r="1" transform="translate(35 15)" fill="#24466e"/>
      <path id="Path_177" data-name="Path 177" d="M29,23h4a4,4,0,0,0,4-4H35a2,2,0,0,1-2,2H29Z" fill="#24466e"/>
      <path id="Path_178" data-name="Path 178" d="M46.99,34.771c0-.06.01-.112.01-.174a5,5,0,0,0-1.2-3.3,3.16,3.16,0,0,1,0-4.212,5.132,5.132,0,0,0,0-6.588,3.154,3.154,0,0,1,0-4.206A4.988,4.988,0,0,0,47,13a6.867,6.867,0,0,0-1.438-4.193l-3.7-4.759A7.843,7.843,0,0,0,35.628,1a7.946,7.946,0,0,0-3.532.833l-.1.048-.1-.048A7.943,7.943,0,0,0,28.372,1,7.843,7.843,0,0,0,22.14,4.048l-3.7,4.759A6.867,6.867,0,0,0,17,13a4.994,4.994,0,0,0,1.2,3.3,3.153,3.153,0,0,1,0,4.2,5.132,5.132,0,0,0,0,6.588,3.159,3.159,0,0,1,0,4.211A5,5,0,0,0,17,34.6c0,.063.009.114.01.174A18.151,18.151,0,0,0,11,48.253V52a7.008,7.008,0,0,0,7,7h1v4H53V48.253a18.151,18.151,0,0,0-6.01-13.482Zm-6.709-29.5,3.7,4.759A4.855,4.855,0,0,1,45,13a3.033,3.033,0,0,1-.8,2.1,5.131,5.131,0,0,0,0,6.587,3.155,3.155,0,0,1,0,4.207,5.138,5.138,0,0,0,0,6.591c.1.128.18.247.262.367A18.048,18.048,0,0,0,42,31.571c-.065-.09-.128-.183-.195-.272a3.16,3.16,0,0,1,0-4.211,5.132,5.132,0,0,0,0-6.588,3.034,3.034,0,0,1-.8-2.1V15.09a5.966,5.966,0,0,0-3.317-5.366L33,7.382V3.618A5.928,5.928,0,0,1,35.628,3a5.855,5.855,0,0,1,4.653,2.276ZM39,61H37V45a2,2,0,0,0-2-2H25V41H39ZM23.8,25.9a3.155,3.155,0,0,1,0-4.207l.063-.086a13.212,13.212,0,0,0,3.9,5.463l-.35,1.748a1.991,1.991,0,0,1-1.593,1.574c-.346.065-.682.155-1.02.239a5.089,5.089,0,0,0,.2-1.436,4.994,4.994,0,0,0-1.2-3.3ZM32,9.118l4.789,2.4A3.975,3.975,0,0,1,39,15.09v1.848a11.2,11.2,0,0,1-5.628,9.7,2.81,2.81,0,0,1-2.744,0A11.2,11.2,0,0,1,25,16.938V15.09a3.976,3.976,0,0,1,2.211-3.577Zm2.622,20.091A3.969,3.969,0,0,0,37,32.1v2.572c0,.11-.022.215-.026.324H27.026c0-.109-.026-.215-.026-.324V32.1a3.969,3.969,0,0,0,2.378-2.9l.177-.887.08.05a4.765,4.765,0,0,0,4.729,0l.08-.05ZM28.342,39a7.712,7.712,0,0,1-.977-2h9.27a7.744,7.744,0,0,1-.977,2Zm9.834-8.609a1.992,1.992,0,0,1-1.593-1.574l-.35-1.748a13.208,13.208,0,0,0,3.9-5.463l.063.086a3.154,3.154,0,0,1,0,4.206,4.994,4.994,0,0,0-1.2,3.3,5.1,5.1,0,0,0,.2,1.436c-.338-.084-.674-.173-1.02-.238ZM19.8,25.9a3.155,3.155,0,0,1,0-4.207,5.132,5.132,0,0,0,0-6.588A3.029,3.029,0,0,1,19,13a4.849,4.849,0,0,1,1.018-2.965l3.7-4.759A5.852,5.852,0,0,1,28.372,3,5.913,5.913,0,0,1,31,3.619V7.382L26.317,9.724A5.966,5.966,0,0,0,23,15.09V18.4a3.034,3.034,0,0,1-.8,2.1,5.131,5.131,0,0,0,0,6.587,3.159,3.159,0,0,1,0,4.211c-.066.089-.129.181-.194.272a18.214,18.214,0,0,0-2.46,1.284c.082-.12.167-.239.262-.367a5.137,5.137,0,0,0,0-6.59ZM13,52V48.253A16.179,16.179,0,0,1,25,32.635v2.041A9.815,9.815,0,0,0,26.02,39H25a2,2,0,0,0-2,2v2H21a2,2,0,0,0-2,2v6H17v2h7.414l1.707-1.707A1,1,0,0,1,26.829,51H27a1,1,0,0,1,1,1v1.006L29.008,53h.014A1.982,1.982,0,0,1,31,55a2,2,0,0,1-2,2H18a5.006,5.006,0,0,1-5-5Zm8,7h8a4.009,4.009,0,0,0,4-4.022,3.985,3.985,0,0,0-3.141-3.889A3.007,3.007,0,0,0,27,49h-.171a2.986,2.986,0,0,0-2.122.879L23.586,51H21V45H35V61H21Zm30,2H45V45H43V61H41V41a2,2,0,0,0-2-2H37.98A9.815,9.815,0,0,0,39,34.676V32.635A16.18,16.18,0,0,1,51,48.253Z" fill="#24466e"/>
    </g>
  </g>
</svg>
