<svg xmlns="http://www.w3.org/2000/svg" width="124" height="124" viewBox="0 0 124 124">
  <g id="psicologia" transform="translate(-1388 -452)">
    <circle id="Ellipse_13" data-name="Ellipse 13" cx="62" cy="62" r="62" transform="translate(1388 452)" fill="#2661a7" opacity="0.25"/>
    <g id="Page-1" transform="translate(1421.131 483.001)">
      <g id="_050---Human-Brain" data-name="050---Human-Brain" transform="translate(0.869 -0.001)">
        <path id="Shape" d="M56.812,24.839a30.97,30.97,0,0,0-1.082-8.775,17.127,17.127,0,0,0-6.178-8.888C43.718,2.605,38.265.711,31.891,1.034a69.351,69.351,0,0,0-10,1.429C17.232,3.4,13.845,5.04,11.54,7.475a19.616,19.616,0,0,0-4.146,6.754,27.312,27.312,0,0,0-.938,3.382l-.083.358A13.14,13.14,0,0,1,5.495,20.3c-.213.477-.427.955-.612,1.447A3.488,3.488,0,0,0,4.6,23.488a3.947,3.947,0,0,0,1.508,2.3c.507.465.84.791.843,1.088a1.789,1.789,0,0,1-.181.44,39.937,39.937,0,0,1-4.525,7.359C1.509,35.584.732,36.641.89,37.715a3.212,3.212,0,0,0,1.5,1.928,7.679,7.679,0,0,0,1.078.62c.445.227,1.193.608,1.24.882a1.766,1.766,0,0,1-.113,1.033c-.154.322-.31.6-.45.844-.379.671-1.015,1.8-.059,2.6.223.2.606.5.955.765a2.608,2.608,0,0,0-.333,1.5,1.486,1.486,0,0,0,.609,1.006,7.827,7.827,0,0,0,.723.446c.608.346.844.508.93.827a2.877,2.877,0,0,1-.112,1.254c-.06.272-.118.543-.154.813a6.01,6.01,0,0,0,.346,2.777,3.824,3.824,0,0,0,4.5,2.732A84.288,84.288,0,0,0,20.27,55.13c2.323,1.372,3.792,5.524,4.174,7.081a1.033,1.033,0,0,0,1,.788l25.94-.071a1.033,1.033,0,0,0,.985-1.336,7.97,7.97,0,0,0-1.053-1.977,9.754,9.754,0,0,1-.661-1.1,20.306,20.306,0,0,1-1.168-2.956,34.4,34.4,0,0,1-1.217-6.112,17.453,17.453,0,0,1,1.352-9.072,23.2,23.2,0,0,1,2.806-4.429c.62-.84,1.268-1.708,1.849-2.625A15.89,15.89,0,0,0,56.812,24.839Zm-6.04,9.887a25.118,25.118,0,0,0-3.04,4.835,19.522,19.522,0,0,0-1.509,10.147,36.237,36.237,0,0,0,1.288,6.474,22.522,22.522,0,0,0,1.282,3.247,11.461,11.461,0,0,0,.8,1.334l.074.113-23.434.066a16.5,16.5,0,0,0-3.643-6.6c.264-.092.517-.178.745-.26.783-.274,1.376-.482,1.671-.575,4.43-1.391,6.646-3.4,6.586-5.985a1.074,1.074,0,0,0-1.058-1.01,1.033,1.033,0,0,0-1.009,1.058c.025,1.064-.846,2.617-5.14,3.964-.31.1-.921.31-1.734.6-.737.258-1.641.575-2.63.913a85.988,85.988,0,0,1-8.885,2.681A1.833,1.833,0,0,1,9,54.335a4.011,4.011,0,0,1-.249-1.823c.028-.214.076-.428.124-.643a4.585,4.585,0,0,0,.1-2.209,3.41,3.41,0,0,0-1.906-2.114l-.221-.127a3.837,3.837,0,0,1,.4-.64,1.033,1.033,0,0,0-.2-1.468c-.248-.184-.839-.626-1.263-.966.053-.1.112-.207.166-.3.159-.28.34-.6.517-.972a3.824,3.824,0,0,0,.278-2.311C6.5,39.5,5.293,38.878,4.4,38.427a5.965,5.965,0,0,1-.86-.5,5.385,5.385,0,0,1-.608-.492c0-.155.165-.533.96-1.5a41.724,41.724,0,0,0,4.722-7.677,2.982,2.982,0,0,0,.405-1.4,3.6,3.6,0,0,0-1.514-2.584c-.413-.382-.812-.744-.857-1.062a1.794,1.794,0,0,1,.165-.723c.169-.449.367-.889.564-1.329a14.957,14.957,0,0,0,1-2.712l.084-.361a25.313,25.313,0,0,1,.864-3.13A17.557,17.557,0,0,1,13.04,8.9c2-2.108,5.032-3.555,9.261-4.406A67.2,67.2,0,0,1,32,3.1c5.847-.31,10.867,1.461,16.278,5.707a14.906,14.906,0,0,1,5.464,7.823,28.865,28.865,0,0,1,1.007,8.18,13.876,13.876,0,0,1-2.211,7.419c-.542.85-1.164,1.688-1.765,2.5Z" transform="translate(-0.869 -0.999)" fill="#2661a7"/>
        <path id="Shape-2" data-name="Shape" d="M21,18h1a1,1,0,0,0,0-2H21a3,3,0,0,0-3,3v1a3,3,0,0,0,3,3h1a1,1,0,0,0,0-2H21a1,1,0,0,1-1-1V19A1,1,0,0,1,21,18Z" transform="translate(-0.237 -0.431)" fill="#2661a7"/>
        <path id="Shape-3" data-name="Shape" d="M28,15a1,1,0,0,0-1,1v2a1,1,0,0,1-1,1H25a1,1,0,0,0,0,2h1a3,3,0,0,0,3-3V16A1,1,0,0,0,28,15Z" transform="translate(-0.016 -0.478)" fill="#2661a7"/>
        <path id="Shape-4" data-name="Shape" d="M32,15V14a3,3,0,0,0-3-3H27a3,3,0,0,0-3,3v1a1,1,0,0,0,2,0V14a1,1,0,0,1,1-1h2a1,1,0,0,1,1,1v1a1,1,0,0,0,2,0Z" transform="translate(0.039 -0.634)" fill="#2661a7"/>
        <path id="Shape-5" data-name="Shape" d="M35,22H34a1,1,0,0,1-1-1V20a1,1,0,0,0-2,0v1a3,3,0,0,0,3,3h1a1,1,0,0,0,0-2Z" transform="translate(0.242 -0.342)" fill="#2661a7"/>
        <path id="Shape-6" data-name="Shape" d="M40,19a1,1,0,0,0-1-1H38a1,1,0,0,1,0-2h1a1,1,0,0,0,0-2H38a3,3,0,0,0,0,6h1A1,1,0,0,0,40,19Z" transform="translate(0.39 -0.515)" fill="#2661a7"/>
        <path id="Shape-7" data-name="Shape" d="M43,19a1,1,0,0,0-1,1v2a1,1,0,0,1-1,1H40a1,1,0,0,0,0,2h1a3,3,0,0,0,3-3V20A1,1,0,0,0,43,19Z" transform="translate(0.537 -0.329)" fill="#2661a7"/>
        <path id="Shape-8" data-name="Shape" d="M50.96,22c0-.016-.008-.029-.009-.045a24.6,24.6,0,0,0-.848-5.284,12.483,12.483,0,0,0-4.593-6.54C40.987,6.583,36.886,5,32.209,5c-.368,0-.74.01-1.121.028-.341.018-.682.057-1.023.085-.023,0-.042-.013-.065-.013a.905.905,0,0,0-.155.031A70.283,70.283,0,0,0,22,6.338a23.368,23.368,0,0,0-3.344.921c-.023.009-.046.014-.068.024A11.565,11.565,0,0,0,14.1,10.016a14.851,14.851,0,0,0-2.882,4.511.988.988,0,0,0-.075.177c-.067.164-.144.319-.206.486-.307.833-.79,2.907-.851,3.168-.225,1.119-.783,4.954,1.486,7.36,1.44,1.526,3.642,2.09,6.534,1.68l1.346-.192c6.416-.923,9.636-1.386,12.407,1.324.533.521,1.079,1.053,1.647,1.57-.629,1.978-1.445,6.2,1.9,8.7C39,41.5,39,42.231,39,44a1,1,0,0,0,1.447.9C40.709,44.764,43,43.488,43,39c0-2.455,1.83-4.577,3.637-6.333l.03-.027a9.669,9.669,0,0,0,2.5-2.5A11.559,11.559,0,0,0,50.7,26.411.99.99,0,0,0,50.79,26,11.924,11.924,0,0,0,51,24.011c.01-.671-.005-1.336-.041-1.993A.121.121,0,0,0,50.96,22ZM41,39a7.643,7.643,0,0,1-.352,2.454c-.467-1.169-1.549-2.38-4.048-4.255-1.987-1.488-1.847-3.962-1.418-5.7a10.727,10.727,0,0,0,6.6,2.361,11.5,11.5,0,0,0,1.166-.068A8.7,8.7,0,0,0,41,39Zm6.48-9.926a6.5,6.5,0,0,1-2.849,2.368A8.783,8.783,0,0,1,39,31.358V30a1,1,0,0,1,1-1h3a1,1,0,0,0,0-2H40a3,3,0,0,0-3,3v.311a27.16,27.16,0,0,1-3.745-3.21A8.515,8.515,0,0,0,29,24.76V24a1,1,0,0,0-2,0v.516a44.512,44.512,0,0,0-7.835.711l-1.342.191A9.642,9.642,0,0,1,16,25.512V25a1,1,0,0,0-2,0v.048a3.352,3.352,0,0,1-.977-.7A4.493,4.493,0,0,1,11.968,22H13a3,3,0,0,0,3-3,1,1,0,0,0-2,0,1,1,0,0,1-1,1H11.879a9.71,9.71,0,0,1,.159-1.219c.131-.568.5-2.1.733-2.781H16a1,1,0,0,0,0-2H13.682a12.436,12.436,0,0,1,1.867-2.609A8.32,8.32,0,0,1,18,9.693V11a3,3,0,0,0,3,3,1,1,0,0,0,0-2,1,1,0,0,1-1-1V8.91a23.124,23.124,0,0,1,2.4-.61c.852-.172,1.724-.337,2.6-.494V8a1,1,0,0,0,2,0V7.473c.666-.1,1.333-.192,2-.265V8a1,1,0,0,0,2,0V7.042c.063,0,.127-.012.189-.016C31.807,7,32.408,7,33,7.025V11a1,1,0,0,0,1,1h2a1,1,0,0,0,0-2H35V7.243a16.851,16.851,0,0,1,5.013,1.692c0,.023-.013.042-.013.065v3a1,1,0,0,0,2,0V10.09c.656.425,1.32.889,2,1.412V14a1,1,0,0,1-1,1,1,1,0,0,0,0,2,3,3,0,0,0,3-3v-.685a9.821,9.821,0,0,1,2.179,3.9A21.794,21.794,0,0,1,48.863,21H47a1,1,0,0,0,0,2h1.979c.007.327.023.652.018.982-.005.348-.043.683-.081,1.018H47a1,1,0,0,0,0,2h1.464A9.776,9.776,0,0,1,47.48,29.074Z" transform="translate(0.943 -0.999)" fill="#2661a7"/>
      </g>
    </g>
  </g>
</svg>
